<svg xmlns="http://www.w3.org/2000/svg" xml:space="preserve" style="fill-rule:evenodd;clip-rule:evenodd;stroke-linecap:round;stroke-linejoin:round;stroke-miterlimit:22.926" viewBox="0 0 49 50">
  <path d="m44.581 27.923 2.818 2.818c.503.505.505 1.322.001 1.826l-5.765 5.761a1.29 1.29 0 0 1-1.424.388l-20.86-9.102-2.882 2.929m-2.357-2.356 4.713 4.713a1.356 1.356 0 0 1 0 1.907L8.011 47.62a1.359 1.359 0 0 1-1.907 0l-4.713-4.712a1.356 1.356 0 0 1 .001-1.907l10.814-10.814a1.352 1.352 0 0 1 1.906 0Z" style="fill:none;fill-rule:nonzero;stroke:#030404;stroke-width:2px"/>
  <path d="M46.152 22.806 24.696 1.35a1.214 1.214 0 0 0-1.705 0l-6.984 6.985a1.21 1.21 0 0 0 0 1.705l21.456 21.455a1.209 1.209 0 0 0 1.705 0l6.984-6.984a1.21 1.21 0 0 0 0-1.705Z" style="fill:none;fill-rule:nonzero;stroke:#030404;stroke-width:2px"/>
</svg>
