<svg width="20" height="18" viewBox="0 0 20 18" fill="none" xmlns="http://www.w3.org/2000/svg">
<path d="M0.585985 14.9697H3.51567V16.697C3.51567 17.0149 3.77801 17.2727 4.1016 17.2727H19.4141C19.7377 17.2727 20 17.0149 20 16.697V1.72727C20 1.4093 19.7377 1.15152 19.4141 1.15152H16.4844V0.575758C16.4844 0.257786 16.222 0 15.8984 0C15.5749 0 15.3125 0.257786 15.3125 0.575758V1.15152H12.3438V0.575758C12.3438 0.257786 12.0814 0 11.7578 0C11.4342 0 11.1719 0.257786 11.1719 0.575758V1.15152H8.24222V0.575758C8.24222 0.257786 7.97987 0 7.65628 0C7.33269 0 7.07034 0.257786 7.07034 0.575758V1.15152H4.1016C3.77801 1.15152 3.51567 1.4093 3.51567 1.72727V5.18182C3.51567 9.42515 1.72094 12.6895 0.210869 13.9516C0.0213379 14.1068 -0.0489354 14.362 0.0350097 14.59C0.119033 14.8179 0.339267 14.9697 0.585985 14.9697ZM18.8281 16.1212H4.68754V14.9697H15.8984C16.0355 14.9697 16.1683 14.9225 16.2736 14.8362C16.9779 14.2597 18.069 12.8872 18.8281 11.1293V16.1212ZM4.68754 2.30303H7.07034V2.87879C7.07034 3.19676 7.33269 3.45455 7.65628 3.45455C7.97987 3.45455 8.24222 3.19676 8.24222 2.87879V2.30303H11.1719V2.87879C11.1719 3.19676 11.4342 3.45455 11.7578 3.45455C12.0814 3.45455 12.3438 3.19676 12.3438 2.87879V2.30303H15.3125V2.87879C15.3125 3.19676 15.5749 3.45455 15.8984 3.45455C16.222 3.45455 16.4844 3.19676 16.4844 2.87879V2.30303H18.8281V4.60606H4.68754V2.30303ZM4.6775 5.75719H18.8177C18.6857 9.40961 17.2591 12.2833 15.6687 13.8182H1.91876C3.72082 11.5619 4.58082 8.62416 4.6775 5.75719Z" fill="white"/>
</svg>
